<svg width="493.101" height="75.003" viewBox="0 0 493.101 75.003" xmlns="http://www.w3.org/2000/svg"><g id="svgGroup" stroke-linecap="round" fill-rule="evenodd" font-size="9pt" stroke="#fff" stroke-width="0.25mm" fill="white" style="stroke:#000;stroke-width:0.25mm;fill:none"><path d="M 255.151 52.851 L 266.051 51.201 A 18.322 18.322 0 0 0 268.806 57.368 A 16.79 16.79 0 0 0 272.951 61.476 A 20.38 20.38 0 0 0 283.425 65.09 A 25.45 25.45 0 0 0 285.201 65.151 A 24.02 24.02 0 0 0 290.365 64.614 A 20.522 20.522 0 0 0 293.201 63.776 A 15.962 15.962 0 0 0 296.494 62.101 A 12.907 12.907 0 0 0 299.076 59.826 A 9.086 9.086 0 0 0 301.298 53.875 A 11.497 11.497 0 0 0 301.301 53.651 A 9.585 9.585 0 0 0 301.137 51.841 A 7.37 7.37 0 0 0 300.626 50.201 Q 299.951 48.701 298.776 47.576 A 10.524 10.524 0 0 0 297.018 46.229 A 13.069 13.069 0 0 0 295.926 45.626 A 22.541 22.541 0 0 0 293.469 44.598 A 26.719 26.719 0 0 0 292.251 44.201 L 273.801 38.751 A 40.876 40.876 0 0 1 269.694 37.284 A 46.776 46.776 0 0 1 268.301 36.676 Q 265.501 35.401 263.176 33.326 A 15.492 15.492 0 0 1 259.925 29.204 A 18.256 18.256 0 0 1 259.401 28.176 Q 258.087 25.39 257.963 21.516 A 25.596 25.596 0 0 1 257.951 20.701 A 21.469 21.469 0 0 1 258.63 15.18 A 16.818 16.818 0 0 1 261.376 9.426 A 20.595 20.595 0 0 1 268.882 3.223 A 25.305 25.305 0 0 1 270.651 2.426 A 32.243 32.243 0 0 1 279.144 0.307 A 40.398 40.398 0 0 1 283.751 0.051 Q 291.051 0.151 296.826 2.651 Q 302.601 5.151 306.426 9.826 A 25.239 25.239 0 0 1 310.811 17.901 A 31.324 31.324 0 0 1 311.701 21.151 L 300.501 23.051 A 15.565 15.565 0 0 0 298.842 18.324 A 14.141 14.141 0 0 0 297.301 16.076 Q 294.851 13.151 291.301 11.576 A 19.182 19.182 0 0 0 284.245 9.968 A 22.126 22.126 0 0 0 283.601 9.951 A 22.726 22.726 0 0 0 283.033 9.944 Q 279.363 9.944 276.276 11.151 A 14.683 14.683 0 0 0 273.33 12.685 A 11.592 11.592 0 0 0 270.976 14.801 Q 269.001 17.151 269.001 20.201 A 8.361 8.361 0 0 0 269.266 22.364 A 6.153 6.153 0 0 0 270.751 25.051 A 12.134 12.134 0 0 0 274.139 27.546 A 14.413 14.413 0 0 0 275.076 27.976 A 42.55 42.55 0 0 0 280.161 29.74 A 38.911 38.911 0 0 0 280.201 29.751 L 293.501 33.501 A 59.209 59.209 0 0 1 295.817 34.204 Q 297.39 34.715 299.176 35.376 A 26.385 26.385 0 0 1 304.579 38.141 A 29.883 29.883 0 0 1 305.326 38.651 A 16.263 16.263 0 0 1 309.55 43.072 A 19.407 19.407 0 0 1 310.251 44.226 A 14.34 14.34 0 0 1 311.705 48.111 Q 312.092 49.825 312.177 51.815 A 26.736 26.736 0 0 1 312.201 52.951 A 22.872 22.872 0 0 1 311.668 57.995 A 17.998 17.998 0 0 1 310.001 62.526 Q 307.801 66.651 303.976 69.426 A 26.689 26.689 0 0 1 297.133 72.976 A 31.472 31.472 0 0 1 295.151 73.601 A 38.567 38.567 0 0 1 285.636 74.989 A 43.403 43.403 0 0 1 284.601 75.001 A 38.695 38.695 0 0 1 276.58 74.201 A 31.608 31.608 0 0 1 270.626 72.326 Q 264.401 69.651 260.376 64.676 A 24.921 24.921 0 0 1 255.519 54.638 A 29.989 29.989 0 0 1 255.151 52.851 Z M 66.051 23.251 L 55.451 26.101 A 25.465 25.465 0 0 0 52.762 19.737 A 20.557 20.557 0 0 0 47.976 14.251 Q 42.601 9.951 34.051 9.951 A 27.988 27.988 0 0 0 28.308 10.51 Q 24.349 11.339 21.301 13.401 A 20.631 20.631 0 0 0 14.331 21.498 A 25.478 25.478 0 0 0 13.626 23.051 A 32.588 32.588 0 0 0 11.579 30.445 A 44.841 44.841 0 0 0 11.051 37.501 A 51.734 51.734 0 0 0 11.05 37.815 Q 11.05 41.574 11.6 44.904 A 31.858 31.858 0 0 0 13.576 51.951 Q 16.151 58.151 21.276 61.601 Q 26.401 65.051 34.051 65.051 A 27.703 27.703 0 0 0 40.017 64.443 Q 44.455 63.465 47.738 60.914 A 17.741 17.741 0 0 0 47.976 60.726 A 21.467 21.467 0 0 0 54.375 52.03 A 27.727 27.727 0 0 0 55.451 48.901 L 66.051 51.751 A 34.728 34.728 0 0 1 60.877 62.356 A 31.318 31.318 0 0 1 54.676 68.701 A 29.664 29.664 0 0 1 42.116 74.255 A 41.585 41.585 0 0 1 34.051 75.001 Q 23.251 75.001 15.651 70.276 Q 8.051 65.551 4.026 57.101 A 40.689 40.689 0 0 1 0.615 45.8 A 53.912 53.912 0 0 1 0.001 37.501 A 52.551 52.551 0 0 1 0.885 27.641 A 39.974 39.974 0 0 1 4.026 17.901 Q 8.051 9.451 15.651 4.726 A 30.691 30.691 0 0 1 26.363 0.672 A 42.091 42.091 0 0 1 34.051 0.001 Q 46.501 0.001 54.676 6.301 A 32.165 32.165 0 0 1 65.464 21.453 A 39.857 39.857 0 0 1 66.051 23.251 Z M 247.301 49.451 L 236.851 49.451 L 236.851 45.651 Q 236.751 36.251 233.276 31.751 A 11.133 11.133 0 0 0 226.831 27.702 A 17.75 17.75 0 0 0 222.701 27.251 A 19.757 19.757 0 0 0 218.02 27.771 A 12.645 12.645 0 0 0 210.901 32.201 A 16.179 16.179 0 0 0 208.2 37.375 Q 206.951 41.242 206.951 46.501 A 32.303 32.303 0 0 0 207.356 51.79 Q 207.826 54.619 208.842 56.891 A 15.193 15.193 0 0 0 210.901 60.276 A 12.799 12.799 0 0 0 218.794 64.846 A 19.231 19.231 0 0 0 222.301 65.151 A 18.129 18.129 0 0 0 226.603 64.662 A 14.204 14.204 0 0 0 230.776 62.926 A 14.55 14.55 0 0 0 235.687 57.801 A 17.884 17.884 0 0 0 236.351 56.551 L 246.601 59.801 Q 243.451 67.051 237.051 71.026 Q 230.651 75.001 222.801 75.001 A 31.127 31.127 0 0 1 215.244 74.12 A 25.145 25.145 0 0 1 208.676 71.476 Q 202.601 67.951 199.226 61.626 A 28.353 28.353 0 0 1 196.249 52.452 A 36.689 36.689 0 0 1 195.851 46.951 A 39.652 39.652 0 0 1 196.533 39.413 A 29.268 29.268 0 0 1 199.176 31.601 A 24.802 24.802 0 0 1 205.475 23.645 A 23.95 23.95 0 0 1 208.451 21.551 A 25.083 25.083 0 0 1 218.241 18.252 A 32.022 32.022 0 0 1 222.301 18.001 A 29.682 29.682 0 0 1 229.05 18.733 A 22.356 22.356 0 0 1 236.351 21.826 A 22.499 22.499 0 0 1 244.159 30.782 A 28.081 28.081 0 0 1 245.026 32.701 A 31.265 31.265 0 0 1 246.949 39.837 Q 247.615 44.221 247.307 49.346 A 57.007 57.007 0 0 1 247.301 49.451 Z M 371.301 49.451 L 360.851 49.451 L 360.851 45.651 Q 360.751 36.251 357.276 31.751 A 11.133 11.133 0 0 0 350.831 27.702 A 17.75 17.75 0 0 0 346.701 27.251 A 19.757 19.757 0 0 0 342.02 27.771 A 12.645 12.645 0 0 0 334.901 32.201 A 16.179 16.179 0 0 0 332.2 37.375 Q 330.951 41.242 330.951 46.501 A 32.303 32.303 0 0 0 331.356 51.79 Q 331.826 54.619 332.842 56.891 A 15.193 15.193 0 0 0 334.901 60.276 A 12.799 12.799 0 0 0 342.794 64.846 A 19.231 19.231 0 0 0 346.301 65.151 A 18.129 18.129 0 0 0 350.603 64.662 A 14.204 14.204 0 0 0 354.776 62.926 A 14.55 14.55 0 0 0 359.687 57.801 A 17.884 17.884 0 0 0 360.351 56.551 L 370.601 59.801 Q 367.451 67.051 361.051 71.026 Q 354.651 75.001 346.801 75.001 A 31.127 31.127 0 0 1 339.244 74.12 A 25.145 25.145 0 0 1 332.676 71.476 Q 326.601 67.951 323.226 61.626 A 28.353 28.353 0 0 1 320.249 52.452 A 36.689 36.689 0 0 1 319.851 46.951 A 39.652 39.652 0 0 1 320.533 39.413 A 29.268 29.268 0 0 1 323.176 31.601 A 24.802 24.802 0 0 1 329.475 23.645 A 23.95 23.95 0 0 1 332.451 21.551 A 25.083 25.083 0 0 1 342.241 18.252 A 32.022 32.022 0 0 1 346.301 18.001 A 29.682 29.682 0 0 1 353.05 18.733 A 22.356 22.356 0 0 1 360.351 21.826 A 22.499 22.499 0 0 1 368.159 30.782 A 28.081 28.081 0 0 1 369.026 32.701 A 31.265 31.265 0 0 1 370.949 39.837 Q 371.615 44.221 371.307 49.346 A 57.007 57.007 0 0 1 371.301 49.451 Z M 93.269 74.172 A 30.224 30.224 0 0 0 100.501 75.001 A 32.021 32.021 0 0 0 105.095 74.682 A 24.665 24.665 0 0 0 114.501 71.376 Q 120.451 67.751 123.726 61.326 A 28.891 28.891 0 0 0 126.207 54.278 A 36.977 36.977 0 0 0 127.001 46.451 A 38.258 38.258 0 0 0 126.617 40.941 A 29.698 29.698 0 0 0 123.751 31.701 Q 120.501 25.301 114.551 21.651 A 23.826 23.826 0 0 0 107.733 18.83 A 30.224 30.224 0 0 0 100.501 18.001 A 31.97 31.97 0 0 0 96.187 18.284 A 24.921 24.921 0 0 0 86.601 21.576 Q 80.651 25.151 77.351 31.576 A 28.747 28.747 0 0 0 74.85 38.624 A 36.708 36.708 0 0 0 74.051 46.451 A 38.975 38.975 0 0 0 74.432 51.993 A 30.071 30.071 0 0 0 77.276 61.276 Q 80.501 67.701 86.451 71.351 A 23.826 23.826 0 0 0 93.269 74.172 Z M 401.783 74.335 A 26.316 26.316 0 0 0 407.851 75.001 Q 415.401 75.001 420.876 71.251 A 23.461 23.461 0 0 0 424.488 68.204 A 25.557 25.557 0 0 0 429.326 61.026 A 31.283 31.283 0 0 0 431.385 54.937 A 37.897 37.897 0 0 0 432.301 46.451 A 40.25 40.25 0 0 0 432.004 41.496 A 31.85 31.85 0 0 0 429.301 31.876 A 28.797 28.797 0 0 0 428.916 31.083 A 24.198 24.198 0 0 0 420.776 21.726 A 21.026 21.026 0 0 0 414.475 18.861 A 26.002 26.002 0 0 0 407.651 18.001 A 27.003 27.003 0 0 0 402.784 18.421 A 19.715 19.715 0 0 0 394.776 21.726 Q 389.551 25.451 386.876 31.901 A 33.632 33.632 0 0 0 384.956 38.31 A 42.126 42.126 0 0 0 384.201 46.451 Q 384.201 54.551 386.901 61.001 A 27.927 27.927 0 0 0 387.522 62.38 A 23.023 23.023 0 0 0 394.851 71.226 A 19.381 19.381 0 0 0 401.783 74.335 Z M 462.583 74.335 A 26.316 26.316 0 0 0 468.651 75.001 Q 476.201 75.001 481.676 71.251 A 23.461 23.461 0 0 0 485.288 68.204 A 25.557 25.557 0 0 0 490.126 61.026 A 31.283 31.283 0 0 0 492.185 54.937 A 37.897 37.897 0 0 0 493.101 46.451 A 40.25 40.25 0 0 0 492.804 41.496 A 31.85 31.85 0 0 0 490.101 31.876 A 28.797 28.797 0 0 0 489.716 31.083 A 24.198 24.198 0 0 0 481.576 21.726 A 21.026 21.026 0 0 0 475.275 18.861 A 26.002 26.002 0 0 0 468.451 18.001 A 27.003 27.003 0 0 0 463.584 18.421 A 19.715 19.715 0 0 0 455.576 21.726 Q 450.351 25.451 447.676 31.901 A 33.632 33.632 0 0 0 445.756 38.31 A 42.126 42.126 0 0 0 445.001 46.451 Q 445.001 54.551 447.701 61.001 A 27.927 27.927 0 0 0 448.322 62.38 A 23.023 23.023 0 0 0 455.651 71.226 A 19.381 19.381 0 0 0 462.583 74.335 Z M 152.675 74.135 A 25.474 25.474 0 0 0 159.451 75.001 A 27.175 27.175 0 0 0 164.483 74.555 A 19.696 19.696 0 0 0 172.451 71.226 A 22.293 22.293 0 0 0 176.163 67.869 A 24.683 24.683 0 0 0 180.401 61.001 A 33.399 33.399 0 0 0 182.339 54.592 A 41.748 41.748 0 0 0 183.101 46.451 A 44.289 44.289 0 0 0 182.777 41.018 A 34.84 34.84 0 0 0 180.426 31.901 A 27.557 27.557 0 0 0 179.714 30.325 A 22.521 22.521 0 0 0 172.526 21.726 A 19.372 19.372 0 0 0 165.674 18.664 A 26.062 26.062 0 0 0 159.651 18.001 A 28.136 28.136 0 0 0 155.98 18.234 A 21.722 21.722 0 0 0 146.526 21.726 A 23.651 23.651 0 0 0 143.319 24.318 A 25.173 25.173 0 0 0 138.001 31.876 A 30.687 30.687 0 0 0 135.847 38.279 A 37.915 37.915 0 0 0 135.001 46.451 Q 135.001 54.551 137.976 61.026 Q 140.951 67.501 146.426 71.251 A 20.672 20.672 0 0 0 152.675 74.135 Z M 184.851 73.501 L 175.551 73.501 L 175.551 34.651 L 174.351 34.651 L 174.351 1.501 L 184.851 1.501 L 184.851 73.501 Z M 391.751 73.501 L 382.451 73.501 L 382.451 1.501 L 392.951 1.501 L 392.951 34.651 L 391.751 34.651 L 391.751 73.501 Z M 452.551 73.501 L 443.251 73.501 L 443.251 1.501 L 453.751 1.501 L 453.751 34.651 L 452.551 34.651 L 452.551 73.501 Z M 100.501 65.151 A 18.162 18.162 0 0 0 105.164 64.589 A 12.164 12.164 0 0 0 112.076 59.926 A 18.973 18.973 0 0 0 115.168 53.091 Q 115.809 50.439 115.889 47.344 A 34.537 34.537 0 0 0 115.901 46.451 A 29.988 29.988 0 0 0 115.422 40.927 Q 114.538 36.217 112.026 32.926 A 12.524 12.524 0 0 0 104.116 28.173 A 19.278 19.278 0 0 0 100.501 27.851 A 19.059 19.059 0 0 0 96.717 28.206 Q 93.936 28.77 91.851 30.226 A 13.836 13.836 0 0 0 87.182 35.884 A 16.976 16.976 0 0 0 86.801 36.776 A 22.837 22.837 0 0 0 85.489 41.739 A 31.248 31.248 0 0 0 85.151 46.451 A 30.139 30.139 0 0 0 85.633 52.007 Q 86.237 55.227 87.599 57.786 A 16.42 16.42 0 0 0 89.051 60.051 A 12.639 12.639 0 0 0 97.319 64.898 A 19.136 19.136 0 0 0 100.501 65.151 Z M 406.401 65.551 A 16.117 16.117 0 0 0 410.162 65.134 A 11.675 11.675 0 0 0 414.676 63.001 A 14.749 14.749 0 0 0 418.847 57.81 A 18.389 18.389 0 0 0 419.576 56.126 Q 421.201 51.801 421.201 46.451 A 29.887 29.887 0 0 0 420.715 40.953 A 24.119 24.119 0 0 0 419.576 36.851 A 16.112 16.112 0 0 0 417.12 32.464 A 14.248 14.248 0 0 0 414.601 30.001 A 12.101 12.101 0 0 0 409.831 27.84 A 17.394 17.394 0 0 0 406.051 27.451 A 16.448 16.448 0 0 0 402.486 27.817 A 11.506 11.506 0 0 0 397.976 29.851 A 13.209 13.209 0 0 0 394.202 34.401 A 17.152 17.152 0 0 0 393.276 36.551 Q 391.751 40.851 391.751 46.451 A 35.606 35.606 0 0 0 392.08 51.415 A 25.953 25.953 0 0 0 393.251 56.351 Q 394.751 60.651 398.001 63.101 Q 401.122 65.454 405.996 65.547 A 21.184 21.184 0 0 0 406.401 65.551 Z M 467.201 65.551 A 16.117 16.117 0 0 0 470.962 65.134 A 11.675 11.675 0 0 0 475.476 63.001 A 14.749 14.749 0 0 0 479.647 57.81 A 18.389 18.389 0 0 0 480.376 56.126 Q 482.001 51.801 482.001 46.451 A 29.887 29.887 0 0 0 481.515 40.953 A 24.119 24.119 0 0 0 480.376 36.851 A 16.112 16.112 0 0 0 477.92 32.464 A 14.248 14.248 0 0 0 475.401 30.001 A 12.101 12.101 0 0 0 470.631 27.84 A 17.394 17.394 0 0 0 466.851 27.451 A 16.448 16.448 0 0 0 463.286 27.817 A 11.506 11.506 0 0 0 458.776 29.851 A 13.209 13.209 0 0 0 455.002 34.401 A 17.152 17.152 0 0 0 454.076 36.551 Q 452.551 40.851 452.551 46.451 A 35.606 35.606 0 0 0 452.88 51.415 A 25.953 25.953 0 0 0 454.051 56.351 Q 455.551 60.651 458.801 63.101 Q 461.922 65.454 466.796 65.547 A 21.184 21.184 0 0 0 467.201 65.551 Z M 160.901 65.551 A 17.73 17.73 0 0 0 164.496 65.207 Q 166.814 64.727 168.614 63.578 A 10.732 10.732 0 0 0 169.301 63.101 Q 172.551 60.651 174.051 56.351 A 25.953 25.953 0 0 0 175.221 51.415 A 35.606 35.606 0 0 0 175.551 46.451 A 35.031 35.031 0 0 0 175.216 41.487 A 25.599 25.599 0 0 0 174.026 36.551 A 15.956 15.956 0 0 0 172.197 32.884 A 12.798 12.798 0 0 0 169.326 29.851 Q 166.151 27.451 161.251 27.451 A 17.394 17.394 0 0 0 157.47 27.84 A 12.101 12.101 0 0 0 152.701 30.001 A 14.746 14.746 0 0 0 148.217 35.676 A 18.091 18.091 0 0 0 147.726 36.851 Q 146.101 41.151 146.101 46.451 A 30.369 30.369 0 0 0 146.587 51.996 A 24.347 24.347 0 0 0 147.726 56.126 A 16.708 16.708 0 0 0 149.957 60.273 A 14.222 14.222 0 0 0 152.626 63.001 Q 155.901 65.551 160.901 65.551 Z M 242.101 49.451 L 203.551 49.451 L 203.551 41.301 L 242.101 41.301 L 242.101 49.451 Z M 366.101 49.451 L 327.551 49.451 L 327.551 41.301 L 366.101 41.301 L 366.101 49.451 Z" vector-effect="non-scaling-stroke"/></g></svg>